<?xml version="1.0" standalone="no"?>
<!DOCTYPE svg PUBLIC "-//W3C//DTD SVG 20010904//EN"
 "http://www.w3.org/TR/2001/REC-SVG-20010904/DTD/svg10.dtd">
<svg version="1.0" xmlns="http://www.w3.org/2000/svg"
 width="80.000000pt" height="80.000000pt" viewBox="0 0 80.000000 80.000000"
 preserveAspectRatio="xMidYMid meet">

<g transform="translate(0.000000,80.000000) scale(0.100000,-0.100000)"
fill="#000000" stroke="none">
<path d="M20 740 c0 -38 2 -40 30 -40 23 0 30 -4 30 -20 0 -16 -7 -20 -30 -20
-28 0 -30 -2 -30 -40 0 -38 2 -40 30 -40 23 0 30 -4 30 -20 0 -16 -7 -20 -30
-20 -28 0 -30 -2 -30 -40 l0 -40 50 0 50 0 0 -220 0 -220 280 0 280 0 0 220 0
220 50 0 50 0 0 40 c0 38 -2 40 -30 40 -23 0 -30 4 -30 20 0 16 7 20 30 20 28
0 30 2 30 40 0 38 -2 40 -30 40 -23 0 -30 4 -30 20 0 16 7 20 30 20 28 0 30 2
30 40 l0 40 -380 0 -380 0 0 -40z m740 0 c0 -20 -7 -20 -360 -20 -353 0 -360
0 -360 20 0 20 7 20 360 20 353 0 360 0 360 -20z m-60 -60 c0 -20 -7 -20 -300
-20 -293 0 -300 0 -300 20 0 20 7 20 300 20 293 0 300 0 300 -20z m60 -60 c0
-20 -7 -20 -360 -20 -353 0 -360 0 -360 20 0 20 7 20 360 20 353 0 360 0 360
-20z m-60 -60 c0 -20 -7 -20 -300 -20 -293 0 -300 0 -300 20 0 20 7 20 300 20
293 0 300 0 300 -20z m60 -60 c0 -20 -7 -20 -360 -20 -353 0 -360 0 -360 20 0
20 7 20 360 20 353 0 360 0 360 -20z m-100 -250 l0 -210 -260 0 -260 0 0 210
0 210 260 0 260 0 0 -210z"/>
<path d="M340 335 l-54 -55 37 0 37 0 0 -80 0 -80 40 0 40 0 0 80 0 80 37 0
37 0 -54 55 c-30 30 -57 55 -60 55 -3 0 -30 -25 -60 -55z m100 0 l34 -35 -27
0 -27 0 0 -80 c0 -73 -2 -80 -20 -80 -18 0 -20 7 -20 80 l0 80 -27 0 -27 0 34
35 c19 19 37 35 40 35 3 0 21 -16 40 -35z"/>
<path d="M730 170 c0 -13 7 -20 20 -20 13 0 20 7 20 20 0 13 -7 20 -20 20 -13
0 -20 -7 -20 -20z"/>
</g>
</svg>
